<svg width="171" height="59" viewBox="0 0 171 59" fill="none" xmlns="http://www.w3.org/2000/svg">
<path d="M4.39305 17.7176C4.25019 17.6436 4.05375 17.579 3.80374 17.5235C3.55373 17.4865 3.3305 17.4403 3.13407 17.3849C2.74119 17.237 2.44654 16.969 2.2501 16.5808C2.07152 16.1926 1.98223 15.7212 1.98223 15.1667C1.98223 14.4273 2.09831 13.5863 2.33046 12.6435C2.58047 11.7008 2.89298 10.7304 3.268 9.7322C3.66088 8.71554 4.07161 7.74509 4.5002 6.82085C4.92879 5.89662 5.32166 5.07405 5.67882 4.35315C6.05384 3.63224 6.33957 3.09619 6.536 2.74498C5.94669 2.8374 5.30381 2.98528 4.60735 3.18861C3.92874 3.37346 3.34836 3.60452 2.8662 3.88179C2.38403 4.15906 2.14295 4.49178 2.14295 4.87996C2.14295 5.24966 2.36618 5.61011 2.81262 5.96132C2.95549 6.09071 3.02692 6.21086 3.02692 6.32177C3.02692 6.48813 2.94656 6.5898 2.78584 6.62677C2.73226 6.64525 2.6519 6.65449 2.54475 6.65449C2.22331 6.65449 1.9108 6.5251 1.60721 6.26631C1.32149 6.00753 1.0804 5.66556 0.883968 5.24041C0.705388 4.79678 0.616099 4.33466 0.616099 3.85406C0.616099 3.15164 0.875039 2.45847 1.39292 1.77453C1.9108 1.0906 2.82155 0.619237 4.12518 0.36045C4.44662 0.286512 5.08058 0.212574 6.02705 0.138635C6.97352 0.0462117 8.00035 0 9.10754 0C10.0897 0 11.0362 0.0554539 11.947 0.166362C12.8756 0.27727 13.6345 0.471359 14.2238 0.748631C14.831 1.0259 15.1346 1.42332 15.1346 1.94089C15.1346 2.07029 15.1257 2.22741 15.1078 2.41225C15.09 2.5971 15.081 2.74498 15.081 2.85589V2.91134C15.081 2.98528 15.0542 3.03149 15.0007 3.04998C14.9471 3.06846 14.9024 3.04073 14.8667 2.96679C14.7774 2.81892 14.5185 2.69877 14.0899 2.60634C13.6792 2.51392 13.1524 2.44922 12.5095 2.41225C11.8845 2.37528 11.2059 2.36604 10.4737 2.38453C10.0451 3.06846 9.54506 3.91876 8.97361 4.93542C8.42001 5.95207 7.85749 7.06116 7.28604 8.26266C6.78601 9.33477 6.32171 10.4254 5.89312 11.5345C5.46453 12.6251 5.1163 13.6325 4.84843 14.5567C4.59842 15.4625 4.47341 16.1926 4.47341 16.7471C4.47341 17.0799 4.52699 17.3202 4.63413 17.468C4.66985 17.505 4.68771 17.5605 4.68771 17.6344C4.68771 17.7638 4.58949 17.7915 4.39305 17.7176Z" fill="#456684"/>
<path d="M13.0913 17.2185C12.8412 17.2185 12.6002 17.1908 12.368 17.1353C12.1537 17.0984 11.8948 17.0152 11.5912 16.8858C11.1983 16.7194 10.9126 16.4329 10.734 16.0262C10.5554 15.6011 10.4661 15.102 10.4661 14.529C10.4661 13.845 10.5733 13.0872 10.7876 12.2554C11.0197 11.4235 11.3144 10.5825 11.6716 9.7322C12.0823 8.78948 12.5466 7.80054 13.0645 6.7654C13.6002 5.73026 14.1806 4.78754 14.8056 3.93724C15.4485 3.08694 16.1182 2.47695 16.8146 2.10726C17.0111 1.99635 17.2343 1.92241 17.4843 1.88544C17.7343 1.82999 17.9843 1.80226 18.2343 1.80226C18.7165 1.80226 19.1719 1.8762 19.6005 2.02407C19.7612 2.07953 19.8416 2.15347 19.8416 2.24589C19.8416 2.30134 19.788 2.37528 19.6808 2.46771C19.5558 2.56013 19.154 2.99452 18.4754 3.77088C17.8147 4.52875 17.0736 5.65632 16.2521 7.15358C16.1628 7.31994 16.0378 7.551 15.8771 7.84676C15.7342 8.12403 15.5824 8.41054 15.4217 8.70629C15.2789 9.00205 15.1538 9.26084 15.0467 9.48265C14.9396 9.68598 14.886 9.78765 14.886 9.78765C15.3503 9.08523 15.8325 8.41978 16.3325 7.7913C16.8504 7.16282 17.3147 6.61752 17.7254 6.15541C18.1361 5.6748 18.4219 5.35132 18.5826 5.18496C18.7254 5.07405 18.9576 5.0186 19.279 5.0186C19.654 5.0186 20.038 5.13875 20.4309 5.37905C20.8237 5.61935 21.0202 6.05374 21.0202 6.68222C21.0202 7.05191 20.922 7.49555 20.7255 8.01312C20.5291 8.53069 20.3059 9.04826 20.0559 9.56583C19.8058 10.0649 19.6005 10.4993 19.4398 10.869C19.404 10.9614 19.3058 11.1832 19.1451 11.5345C18.9844 11.8857 18.8147 12.2923 18.6361 12.7544C18.4576 13.2166 18.2968 13.6787 18.154 14.1408C18.029 14.5844 17.9665 14.9541 17.9665 15.2499C17.9665 15.6196 18.0825 15.8044 18.3147 15.8044C18.4754 15.8044 18.6719 15.7028 18.904 15.4994C19.1362 15.2776 19.3505 15.0465 19.5469 14.8062C19.7612 14.5475 19.913 14.3534 20.0023 14.224C20.3773 13.6879 20.7166 13.1149 21.0202 12.5049C21.3416 11.8949 21.6006 11.3866 21.797 10.9799C21.8684 10.8505 21.9577 10.7858 22.0649 10.7858C22.1899 10.7858 22.297 10.8413 22.3863 10.9522C22.4756 11.0631 22.4845 11.1925 22.4131 11.3404C22.1274 11.9319 21.7702 12.6066 21.3416 13.3644C20.9309 14.1038 20.4934 14.7785 20.0291 15.3885C19.6719 15.8506 19.2612 16.2665 18.7969 16.6362C18.3326 16.9874 17.8415 17.163 17.3236 17.163C16.5736 17.163 16.0467 16.9227 15.7432 16.4421C15.4574 15.9615 15.3146 15.3331 15.3146 14.5567C15.3146 13.9467 15.3949 13.3367 15.5557 12.7267C15.7342 12.1167 15.9307 11.5067 16.145 10.8967C16.3771 10.2313 16.6003 9.63053 16.8146 9.09447C17.0468 8.55842 17.2254 8.19797 17.3504 8.01312C16.9754 8.29039 16.5468 8.72478 16.0646 9.31629C15.6003 9.88932 15.1538 10.5548 14.7253 11.3126C14.2967 12.0705 13.9395 12.8376 13.6538 13.614C13.3681 14.3903 13.2252 15.1112 13.2252 15.7767C13.2252 16.2388 13.3234 16.59 13.5198 16.8303C13.5734 16.8858 13.6002 16.9412 13.6002 16.9967C13.6002 17.1446 13.4306 17.2185 13.0913 17.2185Z" fill="#456684"/>
<path d="M24.8139 17.468C23.5102 17.468 22.5638 17.163 21.9745 16.5531C21.403 15.9431 21.1173 15.139 21.1173 14.1408C21.1173 13.3829 21.2691 12.5511 21.5727 11.6454C21.8048 10.906 22.1173 10.1573 22.5102 9.39947C22.9031 8.62311 23.3584 7.91145 23.8763 7.26449C24.3942 6.59904 24.9657 6.07222 25.5907 5.68405C26.2157 5.27738 26.8765 5.07405 27.5729 5.07405C28.4658 5.07405 29.1891 5.22193 29.7427 5.51768C30.3141 5.79495 30.5998 6.25707 30.5998 6.90404C30.5998 7.38464 30.4123 7.98539 30.0373 8.70629C29.5373 9.70447 28.8051 10.527 27.8408 11.174C26.8765 11.821 25.7961 12.1907 24.5996 12.2831C24.3317 13.041 24.171 13.6602 24.1174 14.1408C24.0996 14.2332 24.0906 14.3256 24.0906 14.4181C24.0906 14.492 24.0906 14.5752 24.0906 14.6676C24.0906 15.2776 24.2246 15.7212 24.4924 15.9985C24.7603 16.2573 25.0907 16.3867 25.4835 16.3867C26.2157 16.3867 26.8586 16.1926 27.4122 15.8044C27.9658 15.4162 28.448 14.9264 28.8587 14.3349C29.2873 13.7434 29.6534 13.1519 29.957 12.5604C30.1355 12.2276 30.2873 11.9226 30.4123 11.6454C30.5373 11.3496 30.6356 11.137 30.707 11.0076C30.7963 10.8598 30.8945 10.7858 31.0016 10.7858C31.1088 10.7858 31.207 10.8505 31.2963 10.9799C31.3856 11.0908 31.3945 11.2202 31.3231 11.3681C31.0909 11.8487 30.7695 12.4864 30.3588 13.2813C29.948 14.0761 29.4837 14.7785 28.9658 15.3885C28.3944 16.0909 27.7783 16.6177 27.1175 16.969C26.4747 17.3017 25.7068 17.468 24.8139 17.468ZM24.9478 11.479C25.7514 11.1648 26.4568 10.601 27.064 9.78765C27.689 8.97432 28.1087 8.07781 28.323 7.09812C28.3408 7.0057 28.3497 6.92252 28.3497 6.84858C28.3676 6.77464 28.3765 6.7007 28.3765 6.62677C28.3765 6.25707 28.2694 6.07222 28.0551 6.07222C27.8765 6.07222 27.689 6.20162 27.4926 6.4604C27.2068 6.81161 26.9033 7.29222 26.5818 7.90221C26.2604 8.49372 25.9746 9.07599 25.7246 9.64901C25.4746 10.222 25.2871 10.6564 25.1621 10.9522L24.9478 11.479Z" fill="#456684"/>
<path d="M8.51823 51.7189C5.94669 51.7189 3.8841 51.0396 2.33046 49.6809C0.77682 48.3223 0 46.2982 0 43.6087C0 42.3333 0.241082 41.1549 0.723246 40.0735C1.2322 38.9644 2.10277 38.299 3.33497 38.0772C3.20103 38.4931 3.13407 38.9644 3.13407 39.4912C3.13407 40.3508 3.24121 41.3212 3.45551 42.4026C3.69659 43.4562 3.93767 44.3712 4.17876 45.1476C4.55377 46.2566 5.06272 47.2132 5.70561 48.0173C6.37528 48.7937 7.08513 49.4037 7.83517 49.8473C8.61199 50.2632 9.30845 50.4712 9.92455 50.4712C10.5139 50.4712 10.9826 50.2909 11.3309 49.9305C11.7059 49.5423 11.8934 48.9184 11.8934 48.0589C11.8934 46.9776 11.6121 45.9239 11.0496 44.898C10.4871 43.8444 9.8174 42.7908 9.04058 41.7371C8.26376 40.6835 7.52712 39.6299 6.83066 38.5763C6.29492 37.7167 5.83954 36.8433 5.46453 35.956C5.08951 35.041 4.902 34.1122 4.902 33.1695C4.902 31.6722 5.22344 30.4106 5.86633 29.3847C6.50922 28.3311 7.3664 27.5409 8.43787 27.0141C9.53613 26.4595 10.7549 26.1823 12.0943 26.1823C12.7104 26.1823 13.3934 26.2239 14.1435 26.307C14.8935 26.3902 15.6034 26.5704 16.273 26.8477L16.8757 27.0973C17.4115 26.2932 18.0142 25.7248 18.6839 25.392C19.3535 25.0593 19.9428 24.893 20.4518 24.893C20.8536 24.893 21.175 24.9761 21.4161 25.1425C21.684 25.2811 21.8179 25.4752 21.8179 25.7248C21.8179 25.9743 21.684 26.2239 21.4161 26.4734C20.3714 27.4993 19.5544 28.4697 18.9651 29.3847C18.3758 30.272 17.8133 31.2979 17.2775 32.4624C16.7686 33.5992 16.4739 34.7499 16.3936 35.9145C16.2329 35.9699 16.1257 35.9976 16.0721 35.9976C15.7775 35.9976 15.5632 35.7897 15.4293 35.3738C15.2953 34.9301 15.2284 34.3756 15.2284 33.7102C15.2284 32.9338 15.3087 32.0881 15.4694 31.1731C15.6302 30.2304 15.8444 29.3986 16.1123 28.6777C15.9516 28.5113 15.7373 28.3727 15.4694 28.2618C15.2016 28.1232 14.8935 28.0538 14.5453 28.0538C13.9024 28.0538 13.3131 28.3172 12.7773 28.8441C12.2416 29.3709 11.7996 30.0225 11.4514 30.7988C11.13 31.5474 10.9692 32.2822 10.9692 33.0031C10.9692 33.9458 11.1701 34.8886 11.5719 35.8313C12.0005 36.774 12.5095 37.7029 13.0988 38.6178C13.7149 39.5328 14.2908 40.4478 14.8265 41.3628C15.3087 42.2224 15.6569 43.0403 15.8712 43.8167C16.1123 44.5653 16.2329 45.2723 16.2329 45.9378C16.2329 47.7123 15.523 49.1264 14.1033 50.18C12.7104 51.2059 10.8487 51.7189 8.51823 51.7189Z" fill="#456684"/>
<path d="M22.1146 51.0534C21.1502 51.0534 20.2797 50.7762 19.5028 50.2216C18.726 49.6393 18.3376 48.7105 18.3376 47.435C18.3376 46.4369 18.5251 45.2169 18.9001 43.7751C19.2752 42.3333 19.7707 40.8637 20.3868 39.3665C21.0029 37.8415 21.6726 36.469 22.3958 35.249H20.6681C20.5074 35.249 20.427 35.1797 20.427 35.0411C20.427 34.9301 20.494 34.8054 20.6279 34.6667C20.7618 34.5004 20.9226 34.3895 21.1101 34.334C21.5387 34.1954 22.0878 33.9458 22.7575 33.5854C23.4539 33.1972 24.1772 32.7536 24.9272 32.2545C25.6772 31.7554 26.3871 31.2563 27.0568 30.7572C27.7264 30.2581 28.2622 29.8284 28.664 29.4679C28.905 29.2461 29.1595 29.0936 29.4274 29.0104C29.722 28.9272 30.0033 28.8856 30.2712 28.8856C30.7266 28.8856 31.0748 28.9688 31.3159 29.1352C31.5569 29.3016 31.5569 29.4679 31.3159 29.6343C31.1016 29.7729 30.8069 30.1195 30.4319 30.674C30.0569 31.2286 29.6685 31.8386 29.2667 32.504C28.8917 33.1695 28.5568 33.7656 28.2622 34.2924H31.3159C31.3694 34.2924 31.3962 34.334 31.3962 34.4172C31.3962 34.5558 31.3427 34.7361 31.2355 34.9579C31.1284 35.152 31.0212 35.249 30.9141 35.249H27.7398C27.2041 36.2195 26.6148 37.3285 25.9719 38.5763C25.329 39.824 24.7129 41.0994 24.1236 42.4026C23.5611 43.678 23.0923 44.8703 22.7173 45.9794C22.3423 47.0607 22.1548 47.9203 22.1548 48.558C22.1548 49.2512 22.4628 49.5978 23.0789 49.5978C23.7218 49.5978 24.445 49.2789 25.2486 48.6412C25.9183 48.0589 26.5478 47.338 27.1371 46.4785C27.6996 45.6744 28.1952 44.8426 28.6238 43.983C29.0792 43.1235 29.4542 42.3887 29.7488 41.7787C29.856 41.5846 30.0033 41.4876 30.1908 41.4876C30.3783 41.4876 30.5257 41.5708 30.6328 41.7371C30.7667 41.8758 30.7801 42.056 30.673 42.2778C30.2712 43.1096 29.7622 44.0801 29.1461 45.1892C28.53 46.2982 27.8738 47.3103 27.1773 48.2253C26.6148 48.9462 26.0656 49.5007 25.5299 49.8889C25.0209 50.2493 24.4718 50.5266 23.8825 50.7207C23.32 50.9425 22.7307 51.0534 22.1146 51.0534Z" fill="#456684"/>
<path d="M30.5889 58.9972C29.3031 59.025 28.2852 58.8447 27.5351 58.4566C26.7851 58.0684 26.4101 57.4584 26.4101 56.6266C26.4101 55.8779 26.678 55.2263 27.2137 54.6718C27.7762 54.145 28.4861 53.6736 29.3433 53.2577C30.2004 52.8695 31.0844 52.5368 31.9952 52.2596C32.9327 51.9823 33.7631 51.7466 34.4863 51.5525C34.9953 50.1384 35.4507 48.7798 35.8525 47.4766C36.2811 46.1735 36.7097 44.8426 37.1383 43.4839L35.29 46.8944C34.5667 48.0034 33.7899 48.96 32.9595 49.7641C32.1559 50.5682 31.2853 50.9009 30.3478 50.7623C29.5174 50.6237 28.9415 50.2771 28.62 49.7225C28.3254 49.1403 28.178 48.4887 28.178 47.7678C28.178 46.9082 28.312 46.021 28.5798 45.106C28.8477 44.1633 29.0888 43.3592 29.3031 42.6937C29.7585 41.3351 30.2406 40.0181 30.7496 38.7426C31.2853 37.4672 31.7139 36.5106 32.0353 35.8729C32.5175 34.9024 33.1202 34.2508 33.8435 33.9181C34.5935 33.5854 35.3703 33.419 36.1739 33.419C36.6293 33.419 37.0847 33.4606 37.5401 33.5438C37.9954 33.5992 38.4374 33.6686 38.866 33.7517C38.6785 33.8072 38.3571 34.1538 37.9017 34.7915C37.4731 35.4292 37.0043 36.2195 36.4954 37.1622C36.0132 38.0772 35.5578 39.0199 35.1292 39.9903C34.5399 41.349 34.0444 42.6383 33.6426 43.8583C33.2408 45.0782 33.0399 45.9655 33.0399 46.5201C33.0399 46.8805 33.1336 47.0607 33.3211 47.0607C33.5354 47.0607 33.8033 46.8666 34.1247 46.4785C34.6605 45.7576 35.1962 44.8842 35.7319 43.8583C36.2677 42.8324 36.7364 41.9174 37.1383 41.1133C37.4329 40.4756 37.741 39.7685 38.0624 38.9922C38.3838 38.1881 38.7187 37.4117 39.0669 36.6631C39.683 35.4431 40.3125 34.5558 40.9554 34.0013C41.5983 33.4467 42.2545 33.114 42.9242 33.0031C43.0849 32.9754 43.2457 32.9615 43.4064 32.9615C43.5939 32.9338 43.768 32.9199 43.9287 32.9199C44.3841 32.9199 44.7993 32.9615 45.1743 33.0447C45.5761 33.1002 45.8574 33.1556 46.0181 33.2111C46.5003 33.3774 46.7414 33.5715 46.7414 33.7933C46.7414 33.9042 46.6744 34.0013 46.5405 34.0845C46.4333 34.1399 46.3128 34.1676 46.1788 34.1676C45.8842 34.1676 45.5359 34.4449 45.1341 34.9995C44.7323 35.5263 44.3171 36.2056 43.8885 37.0374C43.46 37.8415 43.0582 38.6872 42.6831 39.5744C41.9867 41.1826 41.4108 42.8324 40.9554 44.5237C40.5 46.2151 39.9643 47.9341 39.3482 49.6809C40.7411 48.7937 42.0001 47.6014 43.1251 46.1041C43.6073 45.4942 44.0627 44.8148 44.4913 44.0662C44.9198 43.2899 45.335 42.5135 45.7368 41.7371C45.844 41.5153 46.0047 41.4044 46.219 41.4044C46.5405 41.4044 46.7012 41.5846 46.7012 41.9451C46.7012 42.0005 46.6878 42.056 46.661 42.1115C46.661 42.1669 46.6476 42.2224 46.6208 42.2778C46.1119 43.3869 45.5627 44.4128 44.9734 45.3555C44.3841 46.2705 43.768 47.0885 43.1251 47.8094C42.134 48.9184 41.1161 49.8196 40.0714 50.5128C39.6964 50.79 39.2678 51.0396 38.7856 51.2614C38.2499 52.62 37.607 53.8816 36.857 55.0461C36.107 56.2107 35.223 57.1534 34.2051 57.8743C33.1872 58.5952 31.9818 58.9695 30.5889 58.9972ZM29.3834 57.292C30.1603 57.292 30.9773 56.8484 31.8344 55.9611C32.6916 55.0739 33.4015 54.0341 33.964 52.8418C33.1872 53.0359 32.33 53.2993 31.3925 53.632C30.4817 53.9648 29.7049 54.3529 29.062 54.7966C28.4191 55.2402 28.0977 55.7532 28.0977 56.3354C28.0977 56.6127 28.178 56.8345 28.3388 57.0009C28.5263 57.195 28.8745 57.292 29.3834 57.292Z" fill="#456684"/>
<path d="M49.1305 51.0118C48.0322 51.0118 47.1617 50.8455 46.5188 50.5128C45.9027 50.18 45.4473 49.6948 45.1527 49.0571C44.8848 48.4194 44.7509 47.6707 44.7509 46.8112C44.7509 45.3417 45.0723 43.678 45.7152 41.8203C46.3849 39.9626 47.1617 38.1881 48.0456 36.4967C48.3939 35.8313 48.8091 35.0549 49.2912 34.1676C49.8002 33.2527 50.3627 32.3515 50.9788 31.4643C51.6217 30.577 52.2914 29.8145 52.9878 29.1768C53.7111 28.5113 54.4477 28.1093 55.1977 27.9707C55.6531 27.8875 56.0951 27.8459 56.5237 27.8459C57.2202 27.8459 57.7425 27.9152 58.0907 28.0538C58.7068 28.3034 59.0149 28.5529 59.0149 28.8025C59.0149 28.9688 58.8809 29.052 58.6131 29.052C58.5059 29.052 58.3586 29.1213 58.1711 29.26C57.9836 29.3709 57.8095 29.5095 57.6487 29.6759C56.4701 30.8959 55.171 32.712 53.7513 35.1242C52.5994 37.0651 51.6351 38.9783 50.8583 40.8637C50.0814 42.7214 49.5055 44.6346 49.1305 46.6032C49.0502 47.1023 49.01 47.5182 49.01 47.851C49.01 48.4332 49.1037 48.8491 49.2912 49.0987C49.4787 49.3482 49.7064 49.473 49.9743 49.473C50.51 49.473 51.1261 49.1541 51.8226 48.5164C52.5458 47.8787 53.1218 47.1855 53.5504 46.4369C54.1129 45.6328 54.6084 44.801 55.037 43.9414C55.4924 43.0542 55.8674 42.3055 56.1621 41.6955C56.2692 41.5015 56.4165 41.4044 56.6041 41.4044C56.7648 41.4044 56.9121 41.4876 57.046 41.654C57.18 41.8203 57.1934 42.0144 57.0862 42.2362C56.6844 43.068 56.1755 44.0523 55.5594 45.1892C54.9701 46.326 54.3138 47.338 53.5905 48.2253C52.9209 49.0571 52.1976 49.7364 51.4208 50.2632C50.6708 50.7623 49.9073 51.0118 49.1305 51.0118Z" fill="#456684"/>
<path d="M60.7734 51.3446C58.818 51.3446 57.3982 50.8871 56.5143 49.9721C55.6571 49.0571 55.2285 47.851 55.2285 46.3537C55.2285 45.2169 55.4562 43.9692 55.9116 42.6105C56.2598 41.5015 56.7286 40.3785 57.3179 39.2417C57.9072 38.0772 58.5903 37.0097 59.3671 36.0392C60.1439 35.0411 61.0011 34.2508 61.9386 33.6686C62.8762 33.0586 63.8673 32.7536 64.912 32.7536C66.2513 32.7536 67.3362 32.9754 68.1666 33.419C69.0238 33.8349 69.4523 34.5281 69.4523 35.4986C69.4523 36.2195 69.1711 37.1206 68.6086 38.2019C67.8585 39.6992 66.7603 40.9331 65.3138 41.9035C63.8673 42.8739 62.2467 43.4285 60.452 43.5671C60.0501 44.7039 59.8091 45.6328 59.7287 46.3537C59.7019 46.4923 59.6885 46.631 59.6885 46.7696C59.6885 46.8805 59.6885 47.0053 59.6885 47.1439C59.6885 48.0589 59.8894 48.7244 60.2912 49.1403C60.693 49.5284 61.1886 49.7225 61.7779 49.7225C62.8762 49.7225 63.8405 49.4314 64.6709 48.8491C65.5013 48.2669 66.2245 47.5321 66.8406 46.6448C67.4835 45.7576 68.0326 44.8703 68.488 43.983C68.7559 43.4839 68.9836 43.0264 69.1711 42.6105C69.3586 42.1669 69.5059 41.848 69.6131 41.654C69.747 41.4321 69.8943 41.3212 70.0551 41.3212C70.2158 41.3212 70.3631 41.4183 70.497 41.6124C70.631 41.7787 70.6444 41.9728 70.5372 42.1946C70.189 42.9155 69.7068 43.8721 69.0907 45.0644C68.4746 46.2566 67.7782 47.3103 67.0014 48.2253C66.1442 49.2789 65.22 50.0691 64.2289 50.5959C63.2646 51.095 62.1127 51.3446 60.7734 51.3446ZM60.9743 42.361C62.1797 41.8896 63.2378 41.044 64.1485 39.824C65.0861 38.604 65.7156 37.2592 66.037 35.7897C66.0638 35.651 66.0772 35.5263 66.0772 35.4154C66.104 35.3045 66.1174 35.1936 66.1174 35.0826C66.1174 34.5281 65.9567 34.2508 65.6352 34.2508C65.3673 34.2508 65.0861 34.4449 64.7914 34.8331C64.3628 35.3599 63.9075 36.0808 63.4253 36.9958C62.9431 37.8831 62.5145 38.7565 62.1395 39.616C61.7645 40.4756 61.4832 41.1271 61.2957 41.5708L60.9743 42.361Z" fill="#456684"/>
<path d="M79.4321 50.9702C77.8249 50.9702 76.6463 50.5405 75.8963 49.6809C75.173 48.7937 74.8114 47.6291 74.8114 46.1873C74.8114 45.6605 74.8516 45.106 74.9319 44.5237C75.0123 43.9137 75.1462 43.2899 75.3337 42.6521C75.6284 41.5708 76.057 40.3508 76.6195 38.9922C77.182 37.6335 77.8383 36.261 78.5884 34.8747C79.3384 33.4883 80.142 32.1852 80.9992 30.9652C81.8564 29.7452 82.7269 28.747 83.6109 27.9707C84.4145 27.2498 85.2851 26.7091 86.2226 26.3486C87.1869 25.9604 88.0977 25.7664 88.9549 25.7664C90.5085 25.7664 91.6068 26.1268 92.2497 26.8477C92.9193 27.5686 93.2542 28.4559 93.2542 29.5095C93.2542 30.3413 93.0801 31.2009 92.7318 32.0881C92.3836 32.9754 91.9014 33.8349 91.2853 34.6667C90.696 35.4708 90.013 36.164 89.2361 36.7463C88.4593 37.3285 87.6289 37.7029 86.745 37.8692C86.6378 37.8969 86.5039 37.9108 86.3432 37.9108C86.1557 37.9108 86.0619 37.8554 86.0619 37.7444C86.0619 37.6613 86.1155 37.5642 86.2226 37.4533C86.3298 37.3147 86.4369 37.1899 86.5441 37.079C86.7584 36.8572 87.0932 36.4551 87.5486 35.8729C88.0307 35.2629 88.5263 34.5697 89.0352 33.7933C89.5442 32.9893 89.9594 32.2129 90.2808 31.4643C90.763 30.4106 91.0041 29.5095 91.0041 28.7609C91.0041 27.9845 90.7496 27.5963 90.2407 27.5963C89.8656 27.5963 89.3567 27.8597 88.7138 28.3866C88.0977 28.8856 87.3611 29.7452 86.5039 30.9652C85.861 31.8524 85.2449 32.7952 84.6556 33.7933C84.0931 34.7638 83.5975 35.6788 83.1689 36.5383C82.7403 37.3701 82.4055 38.0494 82.1644 38.5763C81.6555 39.824 81.2001 41.1549 80.7983 42.5689C80.3965 43.9553 80.1956 45.1892 80.1956 46.2705C80.1956 47.1023 80.3429 47.7816 80.6376 48.3084C80.9322 48.8075 81.4412 49.0571 82.1644 49.0571C82.9144 49.0571 83.6779 48.7798 84.4547 48.2253C85.2315 47.643 85.9681 46.9221 86.6646 46.0626C87.3879 45.1753 88.0441 44.2603 88.6334 43.3176C89.2495 42.3471 89.7585 41.4599 90.1603 40.6558C90.3478 40.6835 90.6157 40.7112 90.9639 40.739C91.3389 40.7667 91.5264 41.0301 91.5264 41.5292C91.5264 41.8065 91.4461 42.1669 91.2853 42.6105C91.1246 43.0264 90.8434 43.5948 90.4416 44.3158C89.5844 45.7853 88.4325 47.0885 86.986 48.2253C85.5396 49.3621 84.0797 50.1246 82.6064 50.5128C82.0171 50.6791 81.4546 50.79 80.9188 50.8455C80.3831 50.9287 79.8875 50.9702 79.4321 50.9702Z" fill="#456684"/>
<path d="M94.9666 50.9702C93.654 50.9702 92.7299 50.6652 92.1941 50.0553C91.6852 49.4175 91.4307 48.6273 91.4307 47.6846C91.4307 46.6864 91.6048 45.6189 91.953 44.4821C92.328 43.3176 92.7432 42.2501 93.1986 41.2796C93.6808 40.2815 94.0558 39.519 94.3237 38.9922C95.4219 36.8849 96.6809 35.3461 98.1006 34.3756C99.5471 33.4052 101.141 32.9199 102.882 32.9199C103.498 32.9199 104.221 32.9477 105.052 33.0031C105.882 33.0586 106.726 33.0863 107.583 33.0863C108.012 33.0863 108.427 33.0724 108.829 33.0447C109.231 33.017 109.619 33.0031 109.994 33.0031H110.155C110.61 33.0031 110.838 33.0863 110.838 33.2527C110.838 33.3636 110.677 33.4883 110.356 33.627C110.007 33.7656 109.592 34.237 109.11 35.0411C108.628 35.8174 108.132 36.7601 107.623 37.8692C107.114 38.9783 106.632 40.1012 106.177 41.2381C105.936 41.8758 105.614 42.7353 105.213 43.8167C104.811 44.8703 104.516 45.9516 104.329 47.0607C104.302 47.2548 104.275 47.435 104.248 47.6014C104.248 47.74 104.248 47.8787 104.248 48.0173C104.248 48.7105 104.422 49.0571 104.771 49.0571C105.199 49.0571 105.641 48.8214 106.097 48.35C106.552 47.8787 106.994 47.3103 107.422 46.6448C107.797 46.0626 108.172 45.411 108.548 44.6901C108.923 43.9692 109.257 43.3037 109.552 42.6937C109.847 42.056 110.061 41.6124 110.195 41.3628C110.275 41.1965 110.382 41.1133 110.516 41.1133C110.677 41.1133 110.824 41.238 110.958 41.4876C111.092 41.7094 111.106 41.9312 110.999 42.153C110.49 43.1789 109.94 44.2742 109.351 45.4387C108.762 46.6032 108.119 47.6569 107.422 48.5996C106.244 50.18 104.878 50.9702 103.324 50.9702C102.145 50.9702 101.275 50.5959 100.712 49.8473C100.177 49.0987 99.9087 48.1975 99.9087 47.1439C99.9087 46.6726 99.9489 46.2151 100.029 45.7714C99.7346 46.2705 99.373 46.9221 98.9444 47.7262C98.5158 48.5025 98.0203 49.2096 97.4577 49.8473C96.922 50.485 96.3193 50.8455 95.6496 50.9287C95.5425 50.9287 95.4353 50.9287 95.3282 50.9287C95.221 50.9564 95.1005 50.9702 94.9666 50.9702ZM96.4532 48.8491C96.7211 48.8491 97.0693 48.5996 97.4979 48.1005C97.9533 47.6014 98.4087 46.9776 98.8641 46.2289C99.3462 45.4526 99.7614 44.6762 100.11 43.8998C100.19 43.678 100.378 43.2067 100.672 42.4858C100.994 41.7371 101.342 40.8776 101.717 39.9072C102.119 38.909 102.52 37.9108 102.922 36.9126C103.324 35.9145 103.672 35.0411 103.967 34.2924C103.994 34.2092 104.007 34.1122 104.007 34.0013C104.007 33.8349 103.927 33.7517 103.766 33.7517C103.605 33.7517 103.418 33.8211 103.204 33.9597C102.989 34.0706 102.788 34.1954 102.601 34.334C102.253 34.6113 101.797 35.1936 101.235 36.0808C100.699 36.9404 100.123 37.9524 99.5069 39.1169C98.9176 40.2815 98.3551 41.4737 97.8194 42.6937C97.2836 43.886 96.8416 44.9812 96.4934 45.9794C96.172 46.9498 96.0112 47.6846 96.0112 48.1837C96.0112 48.6273 96.1586 48.8491 96.4532 48.8491Z" fill="#456684"/>
<path d="M119.43 51.0534C118.064 51.0534 117.14 50.6652 116.658 49.8889C116.176 49.1125 115.935 48.2114 115.935 47.1855C115.935 46.4369 116.015 45.6882 116.176 44.9396C116.337 44.191 116.511 43.5255 116.698 42.9433C116.886 42.361 117.02 41.959 117.1 41.7371C117.421 40.739 117.756 39.7824 118.104 38.8674C118.479 37.9247 118.761 37.2731 118.948 36.9126C118.868 37.0513 118.573 37.4533 118.064 38.1188C117.555 38.7842 116.953 39.616 116.256 40.6142C115.587 41.5846 114.917 42.6244 114.247 43.7335C113.577 44.8148 113.015 45.8685 112.56 46.8944C112.131 47.8925 111.917 48.7521 111.917 49.473C111.917 49.9721 112.024 50.3325 112.238 50.5543C112.318 50.6375 112.359 50.7068 112.359 50.7623C112.359 50.9009 112.211 50.9425 111.917 50.8871C111.301 50.7762 110.698 50.6652 110.109 50.5543C109.519 50.4157 109.024 50.1523 108.622 49.7641C108.247 49.3482 108.059 48.6689 108.059 47.7262C108.059 46.9776 108.247 46.0764 108.622 45.0228C108.997 43.9414 109.439 42.8324 109.948 41.6955C110.457 40.5587 110.899 39.5051 111.274 38.5347C111.354 38.3128 111.488 37.9801 111.676 37.5365C111.863 37.0651 112.051 36.5799 112.238 36.0808C112.452 35.554 112.613 35.0965 112.72 34.7083C112.827 34.2924 112.854 34.0152 112.801 33.8765C112.747 33.7656 112.72 33.6824 112.72 33.627C112.72 33.2943 112.935 33.1279 113.363 33.1279C113.792 33.1279 114.22 33.1972 114.649 33.3358C115.104 33.4468 115.506 33.6408 115.854 33.9181C116.229 34.1954 116.524 34.5281 116.738 34.9163C116.953 35.3045 117.06 35.7342 117.06 36.2056C117.06 36.5106 116.993 36.871 116.859 37.2869C116.805 37.481 116.685 37.7444 116.497 38.0772C116.337 38.3822 116.162 38.7149 115.975 39.0753C115.787 39.4358 115.586 39.8101 115.372 40.1983C115.185 40.5865 115.118 40.7944 115.171 40.8221C115.841 39.6022 116.564 38.4653 117.341 37.4117C118.145 36.3304 118.868 35.4015 119.511 34.6251C120.18 33.8488 120.622 33.2804 120.837 32.9199C121.051 32.7536 121.399 32.6704 121.881 32.6704C122.444 32.6704 123.02 32.8506 123.609 33.2111C124.198 33.5715 124.493 34.2231 124.493 35.1658C124.493 35.9422 124.225 36.8849 123.69 37.994C122.538 40.2676 121.654 42.3194 121.038 44.1494C120.422 45.9516 120.113 47.2825 120.113 48.1421C120.113 48.7521 120.274 49.0571 120.596 49.0571C120.971 49.0571 121.399 48.8075 121.881 48.3084C122.364 47.8094 122.819 47.2132 123.248 46.5201C123.837 45.6328 124.373 44.6901 124.855 43.6919C125.364 42.6937 125.712 42.0005 125.899 41.6124C125.98 41.446 126.1 41.3628 126.261 41.3628C126.422 41.3628 126.569 41.4599 126.703 41.654C126.864 41.8203 126.891 42.0144 126.783 42.2362C126.596 42.6244 126.315 43.1651 125.94 43.8583C125.591 44.5514 125.19 45.3001 124.734 46.1041C124.279 46.8805 123.783 47.6291 123.248 48.35C122.658 49.1819 122.069 49.8473 121.48 50.3464C120.89 50.8177 120.207 51.0534 119.43 51.0534Z" fill="#456684"/>
<path d="M127.248 50.9287C126.605 50.9287 126.082 50.7762 125.681 50.4712C125.306 50.1662 125.051 49.7641 124.917 49.265C124.757 48.6828 124.676 48.0312 124.676 47.3103C124.676 46.3953 124.783 45.4387 124.998 44.4405C125.239 43.4146 125.533 42.4303 125.882 41.4876C125.989 41.1826 126.163 40.6974 126.404 40.0319C126.672 39.3665 126.94 38.6456 127.208 37.8692C127.475 37.0651 127.703 36.2888 127.891 35.5401C128.078 34.7915 128.172 34.1815 128.172 33.7102C128.172 33.4052 128.132 33.1972 128.051 33.0863C127.917 32.8645 127.984 32.7674 128.252 32.7952C128.466 32.8229 128.681 32.8645 128.895 32.9199C129.136 32.9477 129.364 33.0031 129.578 33.0863C130.65 33.4467 131.386 33.9458 131.788 34.5836C132.19 35.1936 132.391 35.8035 132.391 36.4135C132.391 36.5245 132.391 36.6354 132.391 36.7463C132.391 36.8294 132.377 36.9265 132.351 37.0374C132.297 37.3424 132.11 37.9247 131.788 38.7842C131.467 39.6437 131.092 40.6142 130.663 41.6955C130.261 42.7769 129.873 43.8305 129.498 44.8564C129.15 45.8823 128.895 46.728 128.734 47.3935C128.708 47.5044 128.681 47.6014 128.654 47.6846C128.654 47.74 128.654 47.7955 128.654 47.851C128.654 48.1837 128.761 48.35 128.975 48.35C129.136 48.35 129.364 48.2253 129.659 47.9757C130.06 47.5875 130.569 46.936 131.185 46.021C131.828 45.0782 132.565 43.7889 133.395 42.153C134.011 40.9608 134.494 39.7824 134.842 38.6178C135.217 37.4533 135.404 36.4274 135.404 35.5401C135.404 34.542 135.15 33.7933 134.641 33.2942C134.534 33.1833 134.48 33.1279 134.48 33.1279C134.48 33.0724 134.641 33.0308 134.962 33.0031C135.096 33.0031 135.23 33.0031 135.364 33.0031C135.525 32.9754 135.659 32.9615 135.766 32.9615C137.186 32.9615 138.217 33.2111 138.86 33.7102C139.529 34.1815 139.864 34.7499 139.864 35.4154C139.864 35.554 139.838 35.7342 139.784 35.956C139.596 36.6769 139.275 37.5642 138.82 38.6178C138.391 39.6715 137.842 40.7667 137.172 41.9035C136.717 42.7076 136.395 43.4008 136.208 43.983C136.02 44.5653 135.927 45.1198 135.927 45.6467C135.927 46.7003 136.208 47.2271 136.77 47.2271C137.226 47.2271 137.681 46.9221 138.137 46.3121C138.458 45.9239 138.779 45.4526 139.101 44.898C139.449 44.3435 139.771 43.7889 140.065 43.2344C140.36 42.6521 140.601 42.1669 140.788 41.7787C140.869 41.5846 141.016 41.4876 141.23 41.4876C141.391 41.4876 141.538 41.5708 141.672 41.7371C141.806 41.8758 141.82 42.056 141.713 42.2778C141.472 42.7492 141.177 43.3453 140.829 44.0662C140.507 44.7594 140.119 45.4526 139.663 46.1457C139.235 46.8112 138.753 47.3519 138.217 47.7678C137.654 48.2114 137.092 48.4332 136.529 48.4332C135.94 48.4332 135.498 48.1975 135.203 47.7262C134.909 47.2548 134.761 46.7141 134.761 46.1041C134.761 45.9932 134.761 45.8823 134.761 45.7714C134.761 45.6605 134.775 45.5496 134.802 45.4387C133.65 46.936 132.418 48.2253 131.105 49.3066C129.792 50.388 128.507 50.9287 127.248 50.9287Z" fill="#456684"/>
<path d="M142.759 50.9702C141.447 50.9702 140.522 50.6652 139.987 50.0553C139.478 49.4175 139.223 48.6273 139.223 47.6846C139.223 46.6864 139.397 45.6189 139.746 44.4821C140.121 43.3176 140.536 42.2501 140.991 41.2796C141.473 40.2815 141.848 39.519 142.116 38.9922C143.215 36.8849 144.474 35.3461 145.893 34.3756C147.34 33.4052 148.934 32.9199 150.675 32.9199C151.291 32.9199 152.014 32.9477 152.844 33.0031C153.675 33.0586 154.519 33.0863 155.376 33.0863C155.804 33.0863 156.22 33.0724 156.621 33.0447C157.023 33.017 157.412 33.0031 157.787 33.0031H157.947C158.403 33.0031 158.63 33.0863 158.63 33.2527C158.63 33.3636 158.47 33.4883 158.148 33.627C157.8 33.7656 157.385 34.237 156.903 35.0411C156.421 35.8174 155.925 36.7601 155.416 37.8692C154.907 38.9783 154.425 40.1012 153.97 41.2381C153.728 41.8758 153.407 42.7353 153.005 43.8167C152.603 44.8703 152.309 45.9516 152.121 47.0607C152.094 47.2548 152.068 47.435 152.041 47.6014C152.041 47.74 152.041 47.8787 152.041 48.0173C152.041 48.7105 152.215 49.0571 152.563 49.0571C152.992 49.0571 153.434 48.8214 153.889 48.35C154.345 47.8787 154.786 47.3103 155.215 46.6448C155.59 46.0626 155.965 45.411 156.34 44.6901C156.715 43.9692 157.05 43.3037 157.345 42.6937C157.639 42.056 157.854 41.6124 157.988 41.3628C158.068 41.1965 158.175 41.1133 158.309 41.1133C158.47 41.1133 158.617 41.238 158.751 41.4876C158.885 41.7094 158.898 41.9312 158.791 42.153C158.282 43.1789 157.733 44.2742 157.144 45.4387C156.554 46.6032 155.912 47.6569 155.215 48.5996C154.036 50.18 152.67 50.9702 151.117 50.9702C149.938 50.9702 149.068 50.5959 148.505 49.8473C147.969 49.0987 147.701 48.1975 147.701 47.1439C147.701 46.6726 147.742 46.2151 147.822 45.7714C147.527 46.2705 147.166 46.9221 146.737 47.7262C146.308 48.5025 145.813 49.2096 145.25 49.8473C144.715 50.485 144.112 50.8455 143.442 50.9287C143.335 50.9287 143.228 50.9287 143.121 50.9287C143.014 50.9564 142.893 50.9702 142.759 50.9702ZM144.246 48.8491C144.514 48.8491 144.862 48.5996 145.291 48.1005C145.746 47.6014 146.201 46.9776 146.657 46.2289C147.139 45.4526 147.554 44.6762 147.902 43.8998C147.983 43.678 148.17 43.2067 148.465 42.4858C148.786 41.7371 149.134 40.8776 149.509 39.9072C149.911 38.909 150.313 37.9108 150.715 36.9126C151.117 35.9145 151.465 35.0411 151.76 34.2924C151.786 34.2092 151.8 34.1122 151.8 34.0013C151.8 33.8349 151.719 33.7517 151.559 33.7517C151.398 33.7517 151.21 33.8211 150.996 33.9597C150.782 34.0706 150.581 34.1954 150.393 34.334C150.045 34.6113 149.59 35.1936 149.027 36.0808C148.492 36.9404 147.916 37.9524 147.3 39.1169C146.71 40.2815 146.148 41.4737 145.612 42.6937C145.076 43.886 144.634 44.9812 144.286 45.9794C143.965 46.9498 143.804 47.6846 143.804 48.1837C143.804 48.6273 143.951 48.8491 144.246 48.8491Z" fill="#456684"/>
<path d="M161.397 51.0118C159.763 51.0118 158.41 50.5127 157.339 49.5146C156.267 48.5164 155.731 47.13 155.731 45.3555C155.731 44.7455 155.798 44.1078 155.932 43.4423C156.066 42.7769 156.281 42.2085 156.575 41.7371C156.87 41.2658 157.258 41.0301 157.74 41.0301C158.035 41.0301 158.249 41.1271 158.383 41.3212C158.705 40.6835 159.053 40.0458 159.428 39.4081C159.803 38.7703 160.178 38.1188 160.553 37.4533C160.982 36.7324 161.477 35.9422 162.04 35.0826C162.629 34.1954 163.299 33.419 164.049 32.7536C164.799 32.0604 165.616 31.6722 166.5 31.589C166.607 31.5613 166.714 31.5474 166.821 31.5474C166.955 31.5474 167.076 31.5474 167.183 31.5474C167.478 31.5474 167.786 31.5613 168.107 31.589C168.428 31.6168 168.67 31.6445 168.83 31.6722C168.884 31.6999 168.924 31.7831 168.951 31.9218C168.978 32.0604 168.911 32.1297 168.75 32.1297C168.643 32.1297 168.428 32.2129 168.107 32.3793C167.786 32.5179 167.598 32.8645 167.544 33.419C167.491 35.3599 167.37 37.3008 167.183 39.2417C167.022 41.1826 166.768 42.8046 166.419 44.1078C166.259 44.7733 166.004 45.4942 165.656 46.2705C165.308 47.0469 164.893 47.74 164.41 48.35C163.928 48.96 163.419 49.3759 162.884 49.5978C163.419 49.5978 163.982 49.4314 164.571 49.0987C165.187 48.7382 165.75 48.3084 166.259 47.8094C166.794 47.3103 167.196 46.8666 167.464 46.4785C168.053 45.6189 168.589 44.7178 169.071 43.7751C169.58 42.8046 169.955 42.056 170.196 41.5292C170.277 41.3905 170.37 41.3212 170.478 41.3212C170.612 41.3212 170.732 41.4044 170.839 41.5708C170.946 41.7371 171 41.9174 171 42.1115C171 42.1669 170.987 42.2224 170.96 42.2778C170.96 42.3333 170.946 42.3887 170.92 42.4442C170.437 43.4424 169.902 44.4544 169.312 45.4803C168.75 46.4785 168.094 47.4073 167.344 48.2669C166.594 49.0987 165.736 49.7641 164.772 50.2632C163.808 50.7623 162.683 51.0118 161.397 51.0118ZM158.785 48.3916C159.08 48.3916 159.374 48.2946 159.669 48.1005C159.964 47.9064 160.205 47.6014 160.392 47.1855C160.794 46.2705 161.156 45.2169 161.477 44.0246C161.799 42.8324 162.08 41.654 162.321 40.4894C162.562 39.2972 162.763 38.2435 162.924 37.3285C163.111 36.3858 163.245 35.7065 163.326 35.2906C162.924 35.7897 162.428 36.4967 161.839 37.4117C161.276 38.3267 160.727 39.2417 160.191 40.1567C159.683 41.0717 159.294 41.8065 159.026 42.361C159.053 42.9987 158.812 43.5671 158.303 44.0662C157.794 44.5653 157.352 45.0782 156.977 45.6051V46.0626C156.977 46.1735 156.977 46.3121 156.977 46.4785C157.004 46.6448 157.031 46.7973 157.057 46.936C157.191 47.3796 157.419 47.74 157.74 48.0173C158.089 48.2669 158.437 48.3916 158.785 48.3916Z" fill="#456684"/>
</svg>
